<svg width="249" height="233" viewBox="0 0 249 233" fill="none" xmlns="http://www.w3.org/2000/svg">
<g clip-path="url(#clip0_84_1296)">
<path d="M92.1948 10.3101C93.6452 4.87717 101.355 4.87717 102.805 10.3101C113.545 50.5362 144.964 81.9555 185.19 92.6948C190.623 94.1452 190.623 101.855 185.19 103.305C144.964 114.045 113.545 145.464 102.805 185.69C101.355 191.123 93.6452 191.123 92.1948 185.69C81.4555 145.464 50.0362 114.045 9.81005 103.305C4.37717 101.855 4.37717 94.1452 9.81006 92.6948C50.0362 81.9555 81.4555 50.5362 92.1948 10.3101Z" stroke="#322C2B"/>
<path d="M188.462 3.65772C188.691 1.42016 191.954 1.42016 192.183 3.65772C192.951 11.1457 198.881 17.0732 206.371 17.8222C208.61 18.046 208.61 21.3083 206.371 21.5321C198.881 22.281 192.951 28.2086 192.183 35.6966C191.954 37.9341 188.691 37.9341 188.462 35.6966C187.695 28.2086 181.764 22.281 174.274 21.5321C172.036 21.3083 172.036 18.046 174.274 17.8222C181.764 17.0732 187.695 11.1457 188.462 3.65772Z" fill="#7C3D1C"/>
<path d="M11.9654 52.9953C12.1057 51.6366 14.0883 51.6366 14.2286 52.9953C14.698 57.539 18.3003 61.1384 22.8459 61.5893C24.2054 61.7242 24.2054 63.706 22.8459 63.8409C18.3003 64.2918 14.698 67.8912 14.2286 72.4349C14.0883 73.7936 12.1057 73.7936 11.9654 72.4349C11.496 67.8912 7.89366 64.2918 3.3481 63.8409C1.9886 63.706 1.9886 61.7242 3.3481 61.5893C7.89366 61.1384 11.496 57.539 11.9654 52.9953Z" fill="#7C3D1C"/>
<path d="M154.479 62.1478C155.856 57.0121 163.144 57.0121 164.521 62.1478C174.785 100.408 204.795 130.287 243.079 140.459C248.24 141.83 248.24 149.17 243.079 150.541C204.795 160.713 174.785 190.592 164.521 228.852C163.144 233.988 155.856 233.988 154.479 228.852C144.215 190.592 114.205 160.713 75.9212 150.541C70.7596 149.17 70.7596 141.83 75.9212 140.459C114.205 130.287 144.215 100.408 154.479 62.1478Z" fill="#7C3D1C" stroke="#322C2B"/>
</g>
<defs>
<clipPath id="clip0_84_1296">
<rect width="249" height="233" fill="white"/>
</clipPath>
</defs>
</svg>
